<svg xmlns="http://www.w3.org/2000/svg" width="150" height="107" viewBox="0 0 150 107" fill="none"><path d="M137.041 84.6063C118.197 102.326 91.0554 108.373 65.8829 106.404C46.4761 104.716 26.6475 98.1067 12.7252 84.1844C0.631129 72.5122 -5.83779 50.7148 7.10005 37.4957C18.3504 26.6673 33.9602 22.8703 47.8824 16.6826C64.336 11.4793 79.102 -1.17724 97.1025 0.0884155C134.51 3.04162 169.104 54.9336 137.041 84.6063Z" fill="#F6EBE1"></path><path d="M84.8054 57.4135C84.8054 64.2481 84.8054 71.0827 84.8054 77.9173C84.8054 79.512 85.7167 80.879 87.3114 81.3346C87.7671 81.5624 88.2227 81.3346 88.6783 81.5624C90.5009 81.5624 91.8678 82.7015 92.3235 84.2962C93.0069 86.5745 91.1844 88.8527 88.9062 88.8527C82.0715 89.3083 77.2873 83.6128 77.2873 77.9173C77.2873 64.7037 77.2873 51.4901 77.2873 38.2766C77.2873 37.8209 77.2873 37.3653 77.2873 37.1375C77.2873 35.3149 75.6926 33.948 73.87 33.948C73.1866 33.948 72.2753 33.948 71.5918 33.948C70.4527 33.948 69.9971 34.6314 69.9971 35.5427C69.9971 35.7705 69.9971 35.9983 69.9971 36.2262C69.9971 48.3006 69.9971 60.3751 69.9971 72.4496C69.9971 72.9052 69.9971 73.5887 69.7693 74.0443C69.3136 75.6391 67.9467 76.5504 66.3519 76.7782C64.7572 76.7782 63.1625 75.8669 62.7068 74.2722C62.479 73.8165 62.479 73.1331 62.479 72.6774C62.479 59.4638 62.479 46.2503 62.479 33.0367C62.479 30.5307 63.3903 28.7081 65.4407 27.3412C66.3519 26.8855 67.2632 26.6577 68.1745 26.6577C70.2249 26.6577 72.2753 26.6577 74.3257 26.6577C79.3377 26.6577 83.8941 30.7585 84.5776 35.7705C84.5776 36.454 84.8054 37.1375 84.8054 37.8209C84.8054 44.1999 84.8054 50.8067 84.8054 57.4135Z" fill="#738752"></path></svg>