<svg xmlns="http://www.w3.org/2000/svg" width="216" height="156" viewBox="0 0 216 156" fill="none"><path d="M171.651 127.723C148.124 149.845 114.24 157.394 82.8129 154.936C58.5845 152.83 33.8293 144.578 16.4481 127.197C1.34917 112.624 -6.72698 85.4113 9.42532 68.9079C23.4708 55.3891 42.9589 50.6487 60.3402 42.9237C80.8817 36.4277 99.3164 20.6265 121.789 22.2067C168.49 25.8936 211.68 90.6783 171.651 127.723Z" fill="#716558"></path><path d="M163.048 98.4034C163.048 102.968 163.048 107.709 163.048 112.273C163.048 112.8 162.872 113.327 162.697 113.853C161.994 115.082 160.765 115.609 159.361 115.258C158.132 114.907 157.254 113.853 157.254 112.624C157.254 109.815 157.254 107.182 157.254 104.373C157.254 104.022 157.254 103.846 157.254 103.495C157.078 102.617 156.552 102.09 155.498 101.915C154.796 101.739 154.094 101.739 153.391 101.915C152.162 102.09 151.46 102.968 151.46 104.197C151.46 105.251 151.46 106.128 151.46 107.182C151.46 110.166 151.46 113.327 151.46 116.311C151.46 120.349 148.651 124.212 143.911 124.914C143.384 124.914 142.857 124.914 142.331 124.914C140.926 124.739 139.873 123.685 139.873 122.281C139.697 120.876 140.751 119.647 141.98 119.296C142.331 119.296 142.682 119.12 143.033 119.12C144.613 119.12 145.666 118.067 145.842 116.487C145.842 116.311 145.842 116.136 145.842 115.785C145.842 105.602 145.842 95.4187 145.842 85.2358C145.842 81.5488 148.476 77.5107 152.865 76.8085C158.483 75.9306 162.17 79.6176 162.872 83.8312C162.872 84.3579 162.872 84.709 162.872 85.2358C163.048 89.4494 163.048 93.8386 163.048 98.4034ZM151.636 89.0983C151.636 90.5028 151.636 91.9074 151.636 93.3119C151.636 94.7164 152.865 95.7699 154.094 95.7699C154.445 95.7699 154.796 95.7699 155.147 95.7699C156.552 95.7699 157.43 94.892 157.43 93.4875C157.43 90.6784 157.43 87.6937 157.43 84.8846C157.43 83.1289 156.201 82.0755 154.445 82.0755C152.689 82.0755 151.636 83.3045 151.636 84.8846C151.636 86.2892 151.636 87.6937 151.636 89.0983Z" fill="white"></path><path d="M83.6908 95.0675C83.6908 100.686 83.6908 106.304 83.6908 111.747C83.6908 112.098 83.6908 112.273 83.6908 112.624C83.5152 114.204 82.4618 115.258 80.8817 115.258C79.3016 115.258 78.0726 114.204 77.897 112.624C77.897 112.273 77.897 111.922 77.897 111.571C77.897 100.861 77.897 90.3272 77.897 79.6175C77.897 76.984 75.9658 74.526 72.8056 74.3504C68.0652 74.1749 63.676 72.7703 59.4624 70.4879C58.2334 69.9612 57.7067 68.7323 57.8822 67.6788C58.0578 66.4499 58.9356 65.572 60.1646 65.2209C60.8669 65.0453 61.5692 65.2209 62.2715 65.572C64.7294 66.801 67.3629 67.8544 69.9965 68.3811C73.3323 69.0834 76.8436 69.0834 80.1794 68.03C81.2328 67.6788 82.2863 67.1521 83.3397 66.801C87.3777 65.3965 91.4158 64.5186 95.805 64.5186C99.492 64.5186 103.003 64.8698 106.515 65.9232C106.866 66.0987 107.217 66.0987 107.744 66.2743C109.148 66.801 109.85 68.3811 109.324 69.7857C108.797 71.3658 107.217 72.0681 105.812 71.5414C103.881 70.8391 101.95 70.4879 99.8431 70.3124C96.1562 69.9612 92.4692 70.1368 88.7823 71.0146C86.6755 71.5413 85.2709 73.1215 84.3931 75.2283C84.0419 76.1061 83.8664 76.984 83.8664 78.0374C83.6908 83.6556 83.6908 89.4493 83.6908 95.0675Z" fill="white"></path><path d="M48.5771 100.335C48.5771 105.602 48.5771 110.869 48.5771 116.136C48.5771 117.365 49.2794 118.418 50.5084 118.769C50.8595 118.945 51.2106 118.769 51.5618 118.945C52.9663 118.945 54.0197 119.823 54.3709 121.052C54.8976 122.807 53.493 124.563 51.7373 124.563C46.4703 124.914 42.7833 120.525 42.7833 116.136C42.7833 105.953 42.7833 95.77 42.7833 85.587C42.7833 85.2358 42.7833 84.8847 42.7833 84.7091C42.7833 83.3046 41.5544 82.2512 40.1498 82.2512C39.6231 82.2512 38.9208 82.2512 38.3941 82.2512C37.5163 82.2512 37.1652 82.7779 37.1652 83.4802C37.1652 83.6557 37.1652 83.8313 37.1652 84.0069C37.1652 93.312 37.1652 102.617 37.1652 111.922C37.1652 112.273 37.1652 112.8 36.9896 113.151C36.6384 114.38 35.585 115.082 34.3561 115.258C33.1271 115.258 31.8981 114.556 31.547 113.327C31.3714 112.976 31.3714 112.449 31.3714 112.098C31.3714 101.915 31.3714 91.7319 31.3714 81.5489C31.3714 79.6177 32.0737 78.2131 33.6538 77.1597C34.3561 76.8086 35.0583 76.633 35.7606 76.633C37.3407 76.633 38.9208 76.633 40.501 76.633C44.3635 76.633 47.8748 79.7932 48.4015 83.6557C48.4015 84.1824 48.5771 84.7091 48.5771 85.2358C48.5771 90.1518 48.5771 95.2432 48.5771 100.335Z" fill="white"></path><path d="M112.66 96.2964C112.66 91.0293 112.66 85.9379 112.66 80.6708C112.66 78.9151 113.889 76.9839 115.82 76.4572C116.171 76.2816 116.698 76.2816 117.049 76.2816C118.453 76.2816 119.858 76.2816 121.262 76.2816C124.774 76.106 128.11 78.564 129.339 82.0754C129.69 82.9532 129.865 84.0066 129.865 84.8845C129.865 86.4646 129.865 87.8691 129.865 89.4492C129.865 92.6095 128.461 95.0674 125.652 96.6475C124.774 97.1742 124.598 97.8765 124.949 98.7544C125.476 100.334 126.178 101.915 126.705 103.495C127.758 105.953 128.636 108.586 129.514 111.044C130.041 112.624 129.514 114.029 128.11 114.731C126.705 115.433 124.949 114.731 124.247 113.151C123.72 112.098 123.369 111.044 123.018 109.815C121.789 106.655 120.56 103.495 119.331 100.159C119.156 99.6322 118.98 99.4566 118.629 99.6322C118.278 99.6322 118.102 99.8078 118.102 100.159C118.102 100.334 118.102 100.51 118.102 100.686C118.102 104.373 118.102 107.884 118.102 111.571C118.102 112.975 117.4 114.029 116.171 114.38C114.415 114.907 112.484 113.678 112.484 111.746C112.484 109.991 112.484 108.235 112.484 106.479C112.66 103.319 112.66 99.8078 112.66 96.2964ZM118.278 86.6401C118.278 87.518 118.278 88.5714 118.278 89.4492C118.278 91.7316 120.56 92.9606 122.667 92.0828C123.545 91.7316 124.072 90.8538 124.072 89.9759C124.072 88.2203 124.072 86.6401 124.072 84.8845C124.072 83.4799 122.843 82.2509 121.438 82.2509C120.911 82.2509 120.209 82.2509 119.682 82.2509C118.804 82.2509 118.278 82.7776 118.278 83.6555C118.278 84.5333 118.278 85.5867 118.278 86.6401Z" fill="white"></path><path d="M106.69 98.228C106.69 102.793 106.69 107.533 106.69 112.098C106.69 112.449 106.69 112.976 106.515 113.327C106.164 114.556 104.759 115.434 103.53 115.258C102.126 115.083 101.072 114.029 101.072 112.625C101.072 112.449 101.072 112.273 101.072 112.098C101.072 109.464 101.072 106.831 101.072 104.022C101.072 102.442 100.194 101.564 98.6141 101.564C98.0874 101.564 97.5607 101.564 97.2096 101.564C96.1562 101.739 95.4539 102.442 95.4539 103.495C95.4539 103.846 95.4539 104.022 95.4539 104.373C95.4539 107.006 95.4539 109.64 95.4539 112.273C95.4539 112.976 95.2783 113.678 94.9272 114.205C94.2249 115.258 92.996 115.609 91.767 115.258C90.538 114.907 89.8357 113.854 89.8357 112.625C89.8357 112.449 89.8357 112.273 89.8357 112.098C89.8357 103.144 89.8357 94.0143 89.8357 85.0604C89.8357 81.0223 92.6448 77.3353 96.8585 76.6331C102.477 75.7552 106.164 79.4422 106.866 83.4802C107.041 84.007 107.041 84.5337 107.041 85.0604C106.69 89.274 106.69 93.8388 106.69 98.228ZM100.897 89.0984C100.897 87.6939 100.897 86.2893 100.897 84.8848C100.897 83.3047 99.8431 82.2513 98.263 82.0757C96.5073 82.0757 95.1028 82.9535 95.1028 84.5337C95.1028 87.5183 95.1028 90.503 95.1028 93.6632C95.1028 94.8922 96.1562 95.77 97.3852 95.77C97.7363 95.77 97.9119 95.77 98.263 95.77C99.8431 95.77 100.721 94.8922 100.721 93.3121C100.897 91.9075 100.897 90.503 100.897 89.0984Z" fill="white"></path><path d="M54.5464 93.3117C54.5464 88.7469 54.5464 84.3577 54.5464 79.7929C54.5464 79.4417 54.5465 78.915 54.722 78.5639C55.0732 77.3349 56.3021 76.4571 57.5311 76.4571C58.7601 76.4571 59.8135 77.3349 60.1646 78.7395C60.1646 79.0906 60.3402 79.4417 60.3402 79.9685C60.3402 88.9224 60.3402 97.8764 60.3402 107.006C60.3402 108.235 61.0425 109.288 62.2715 109.64C62.9737 109.815 63.676 109.815 64.3783 109.64C65.4317 109.288 65.9584 108.411 66.134 107.357C66.134 107.006 66.134 106.83 66.134 106.479C66.134 98.5787 66.134 90.6781 66.134 82.7775C66.134 82.0753 66.3095 81.373 66.8362 80.8463C67.5385 79.9685 68.7675 79.4417 69.9965 79.7929C71.2255 80.144 71.9277 81.1974 72.1033 82.4264C72.1033 82.602 72.1033 82.602 72.1033 82.7775C72.1033 90.8537 72.1033 98.9298 72.1033 107.006C72.1033 111.044 69.2942 114.555 65.2561 115.433C59.8135 116.487 55.951 112.975 55.0732 108.937C54.8976 108.235 54.8976 107.533 54.8976 106.83C54.5464 102.09 54.5464 97.7009 54.5464 93.3117Z" fill="white"></path><path d="M134.079 95.7699C134.079 90.3273 134.079 84.8847 134.079 79.4421C134.079 78.3887 134.43 77.5108 135.308 76.9841C136.186 76.2818 137.239 76.2818 138.293 76.633C139.346 77.1597 139.873 78.0375 139.873 79.0909C139.873 79.2665 139.873 79.4421 139.873 79.6176C139.873 90.5029 139.873 101.213 139.873 112.098C139.873 113.151 139.697 113.853 138.819 114.556C137.941 115.258 136.888 115.434 135.835 115.082C134.781 114.731 134.255 113.853 134.079 112.625C134.079 112.449 134.079 112.273 134.079 111.922C134.079 106.655 134.079 101.213 134.079 95.7699Z" fill="white"></path><path d="M106.69 121.403C106.866 123.159 105.637 124.037 104.583 124.388C102.828 124.914 101.072 123.685 100.897 121.93C100.897 121.403 100.897 120.876 101.072 120.35C101.423 118.945 102.828 118.067 104.232 118.243C105.637 118.418 106.69 119.647 106.69 121.052C106.69 121.227 106.69 121.403 106.69 121.403Z" fill="white"></path><path d="M95.1027 121.403C95.2783 123.334 93.6982 124.387 92.4692 124.563C91.0647 124.563 89.6601 123.685 89.4845 122.28C89.309 121.227 89.309 120.174 90.1868 119.471C91.0646 118.593 92.1181 118.242 93.347 118.593C94.4005 118.945 95.2783 119.998 95.2783 121.227C95.1027 121.227 95.1027 121.403 95.1027 121.403Z" fill="white"></path><path d="M151.636 89.0986C151.636 87.6941 151.636 86.2895 151.636 84.885C151.636 83.1293 152.689 82.0759 154.445 82.0759C156.201 82.0759 157.43 83.1293 157.43 84.885C157.43 87.6941 157.43 90.6787 157.43 93.4878C157.43 94.8924 156.376 95.7702 155.147 95.7702C154.796 95.7702 154.445 95.7702 154.094 95.7702C152.865 95.9458 151.636 94.8924 151.636 93.3123C151.636 91.9077 151.636 90.5032 151.636 89.0986Z" fill="#716558"></path><path d="M118.278 86.64C118.278 85.5866 118.278 84.7088 118.278 83.6554C118.278 82.7775 118.804 82.2508 119.682 82.2508C120.209 82.2508 120.911 82.2508 121.438 82.2508C122.843 82.2508 124.072 83.4798 124.072 84.8844C124.072 86.64 124.072 88.2202 124.072 89.9758C124.072 91.0292 123.545 91.7315 122.667 92.0827C120.56 92.9605 118.278 91.7315 118.278 89.4491C118.453 88.3957 118.278 87.5179 118.278 86.64Z" fill="#716558"></path><path d="M100.896 89.0983C100.896 90.5028 100.896 91.9074 100.896 93.3119C100.896 94.892 100.019 95.7699 98.4385 95.7699C98.0874 95.7699 97.9118 95.7699 97.5606 95.7699C96.3317 95.7699 95.2783 94.892 95.2783 93.663C95.2783 90.6784 95.2783 87.6937 95.2783 84.5335C95.2783 82.9534 96.6828 81.9 98.4385 82.0755C100.019 82.0755 101.072 83.3045 101.072 84.8846C100.896 86.2892 100.896 87.6937 100.896 89.0983Z" fill="#716558"></path><g clip-path="url(#clip0_239_5)"><path d="M81.7212 3.92425C81.6681 3.47132 81.2832 0.998085 81.0833 0.869578C80.5029 0.494591 76.0291 2.24313 75.1042 2.58019C70.4901 4.26974 65.3126 6.44804 61.447 9.48376C54.3473 15.0601 50.7496 24.3821 51.7639 33.2828L49.5993 29.2169C45.7677 22.8379 35.317 17.3016 27.8898 19.0038C26.259 19.3767 27.1477 21.3127 27.4709 22.4903C29.0168 28.1215 32.6612 34.0096 37.3306 37.5804C41.4854 40.7573 46.008 41.996 51.1238 42.8745L52.1955 47.3975L54.9597 46.5548C53.9306 39.1394 56.1398 32.2232 60.0564 26.0085C63.1098 21.1631 66.5374 17.0741 71.1365 13.6023L73.0311 12.53C66.548 18.1843 61.6703 25.4249 58.6233 33.4366C58.2682 34.3678 56.2525 40.199 56.6607 40.6541C65.5763 38.2293 73.7859 34.0728 78.1703 25.6272C81.2492 19.6948 82.4973 10.516 81.7212 3.92004V3.92425ZM37.0967 26.335C41.698 28.2774 46.6289 31.7829 49.3888 35.9583C50.1309 37.0811 50.7602 37.9912 50.9155 39.3943C50.8751 38.4315 38.8105 26.4993 37.0946 26.3371L37.0967 26.335Z" fill="#738752"></path></g><path d="M172.518 127.531C148.796 149.837 114.628 157.45 82.9387 154.971C58.5079 152.847 33.546 144.526 16.0195 127C0.794515 112.306 -7.34908 84.8653 8.93812 68.224C23.1009 54.5923 42.7518 49.8124 60.2782 42.0229C80.9913 35.4726 99.5799 19.5395 122.24 21.1328C169.332 24.8505 212.882 90.1763 172.518 127.531Z" fill="#FFFAF4"></path><path d="M163.844 97.966C163.844 102.569 163.844 107.349 163.844 111.952C163.844 112.483 163.667 113.014 163.49 113.545C162.781 114.784 161.542 115.315 160.126 114.961C158.887 114.607 158.001 113.545 158.001 112.306C158.001 109.473 158.001 106.818 158.001 103.985C158.001 103.631 158.001 103.454 158.001 103.1C157.824 102.215 157.293 101.684 156.231 101.507C155.523 101.33 154.815 101.33 154.107 101.507C152.867 101.684 152.159 102.569 152.159 103.808C152.159 104.87 152.159 105.756 152.159 106.818C152.159 109.827 152.159 113.014 152.159 116.024C152.159 120.095 149.327 123.99 144.547 124.698C144.016 124.698 143.485 124.698 142.954 124.698C141.537 124.521 140.475 123.459 140.475 122.043C140.298 120.626 141.36 119.387 142.599 119.033C142.954 119.033 143.308 118.856 143.662 118.856C145.255 118.856 146.317 117.794 146.494 116.201C146.494 116.024 146.494 115.847 146.494 115.492C146.494 105.224 146.494 94.9564 146.494 84.6884C146.494 80.9707 149.15 76.8989 153.576 76.1908C159.241 75.3056 162.958 79.0233 163.667 83.2721C163.667 83.8032 163.667 84.1573 163.667 84.6884C163.844 88.9373 163.844 93.3631 163.844 97.966ZM152.336 88.5832C152.336 89.9995 152.336 91.4157 152.336 92.832C152.336 94.2483 153.576 95.3105 154.815 95.3105C155.169 95.3105 155.523 95.3105 155.877 95.3105C157.293 95.3105 158.179 94.4253 158.179 93.0091C158.179 90.1765 158.179 87.1669 158.179 84.3344C158.179 82.564 156.939 81.5018 155.169 81.5018C153.399 81.5018 152.336 82.741 152.336 84.3344C152.336 85.7506 152.336 87.1669 152.336 88.5832Z" fill="#716558"></path><path d="M83.8237 94.6027C83.8237 100.268 83.8237 105.933 83.8237 111.421C83.8237 111.775 83.8237 111.952 83.8237 112.306C83.6466 113.899 82.5844 114.962 80.9911 114.962C79.3978 114.962 78.1585 113.899 77.9815 112.306C77.9815 111.952 77.9815 111.598 77.9815 111.244C77.9815 100.445 77.9815 89.8227 77.9815 79.0236C77.9815 76.3681 76.0341 73.8896 72.8475 73.7126C68.0676 73.5355 63.6417 72.1193 59.3928 69.8178C58.1536 69.2867 57.6225 68.0475 57.7995 66.9853C57.9766 65.746 58.8617 64.8608 60.101 64.5068C60.8091 64.3297 61.5173 64.5068 62.2254 64.8608C64.7039 66.1001 67.3594 67.1623 70.0149 67.6934C73.3786 68.4015 76.9193 68.4015 80.283 67.3393C81.3452 66.9853 82.4074 66.4542 83.4696 66.1001C87.5414 64.6838 91.6132 63.7986 96.0391 63.7986C99.7568 63.7986 103.297 64.1527 106.838 65.2149C107.192 65.3919 107.546 65.3919 108.077 65.569C109.494 66.1001 110.202 67.6934 109.671 69.1097C109.14 70.703 107.546 71.4111 106.13 70.88C104.183 70.1719 102.235 69.8178 100.111 69.6408C96.3931 69.2867 92.6754 69.4637 88.9577 70.3489C86.8332 70.88 85.417 72.4733 84.5318 74.5978C84.1777 75.4829 84.0007 76.3681 84.0007 77.4303C83.8237 83.0954 83.8237 88.9376 83.8237 94.6027Z" fill="#716558"></path><path d="M48.4168 99.9136C48.4168 105.225 48.4168 110.536 48.4168 115.847C48.4168 117.086 49.125 118.148 50.3642 118.502C50.7183 118.679 51.0724 118.502 51.4264 118.679C52.8427 118.679 53.9049 119.564 54.259 120.804C54.7901 122.574 53.3738 124.344 51.6035 124.344C46.2924 124.698 42.5747 120.273 42.5747 115.847C42.5747 105.579 42.5747 95.3107 42.5747 85.0427C42.5747 84.6886 42.5747 84.3345 42.5747 84.1575C42.5747 82.7412 41.3354 81.679 39.9192 81.679C39.3881 81.679 38.6799 81.679 38.1488 81.679C37.2636 81.679 36.9096 82.2101 36.9096 82.9182C36.9096 83.0953 36.9096 83.2723 36.9096 83.4493C36.9096 92.8322 36.9096 102.215 36.9096 111.598C36.9096 111.952 36.9096 112.483 36.7325 112.837C36.3785 114.076 35.3163 114.785 34.077 114.962C32.8378 114.962 31.5985 114.253 31.2445 113.014C31.0674 112.66 31.0674 112.129 31.0674 111.775C31.0674 101.507 31.0674 91.2389 31.0674 80.9709C31.0674 79.0235 31.7756 77.6072 33.3689 76.545C34.077 76.1909 34.7852 76.0139 35.4933 76.0139C37.0866 76.0139 38.6799 76.0139 40.2732 76.0139C44.168 76.0139 47.7087 79.2005 48.2398 83.0953C48.2398 83.6264 48.4168 84.1575 48.4168 84.6886C48.4168 89.6456 48.4168 94.7796 48.4168 99.9136Z" fill="#716558"></path><path d="M113.034 95.8419C113.034 90.5308 113.034 85.3968 113.034 80.0858C113.034 78.3154 114.274 76.368 116.221 75.8369C116.575 75.6599 117.106 75.6599 117.46 75.6599C118.876 75.6599 120.293 75.6599 121.709 75.6599C125.25 75.4828 128.613 77.9613 129.853 81.502C130.207 82.3872 130.384 83.4494 130.384 84.3346C130.384 85.9279 130.384 87.3442 130.384 88.9375C130.384 92.1241 128.967 94.6026 126.135 96.1959C125.25 96.727 125.073 97.4352 125.427 98.3203C125.958 99.9137 126.666 101.507 127.197 103.1C128.259 105.579 129.144 108.234 130.03 110.713C130.561 112.306 130.03 113.722 128.613 114.431C127.197 115.139 125.427 114.431 124.719 112.837C124.187 111.775 123.833 110.713 123.479 109.474C122.24 106.287 121.001 103.1 119.762 99.7366C119.585 99.2055 119.408 99.0285 119.053 99.2055C118.699 99.2055 118.522 99.3825 118.522 99.7366C118.522 99.9137 118.522 100.091 118.522 100.268C118.522 103.985 118.522 107.526 118.522 111.244C118.522 112.66 117.814 113.722 116.575 114.076C114.805 114.608 112.857 113.368 112.857 111.421C112.857 109.651 112.857 107.88 112.857 106.11C113.034 102.923 113.034 99.3825 113.034 95.8419ZM118.699 86.1049C118.699 86.9901 118.699 88.0523 118.699 88.9375C118.699 91.2389 121.001 92.4782 123.125 91.593C124.01 91.2389 124.542 90.3538 124.542 89.4686C124.542 87.6983 124.542 86.1049 124.542 84.3346C124.542 82.9183 123.302 81.6791 121.886 81.6791C121.355 81.6791 120.647 81.6791 120.116 81.6791C119.23 81.6791 118.699 82.2102 118.699 83.0953C118.699 83.9805 118.699 85.0427 118.699 86.1049Z" fill="#716558"></path><path d="M107.015 97.7891C107.015 102.392 107.015 107.172 107.015 111.775C107.015 112.129 107.015 112.66 106.838 113.014C106.484 114.253 105.068 115.139 103.829 114.962C102.412 114.784 101.35 113.722 101.35 112.306C101.35 112.129 101.35 111.952 101.35 111.775C101.35 109.119 101.35 106.464 101.35 103.631C101.35 102.038 100.465 101.153 98.8718 101.153C98.3407 101.153 97.8096 101.153 97.4555 101.153C96.3933 101.33 95.6852 102.038 95.6852 103.1C95.6852 103.454 95.6852 103.631 95.6852 103.985C95.6852 106.641 95.6852 109.296 95.6852 111.952C95.6852 112.66 95.5081 113.368 95.1541 113.899C94.4459 114.962 93.2067 115.316 91.9674 114.962C90.7282 114.607 90.0201 113.545 90.0201 112.306C90.0201 112.129 90.0201 111.952 90.0201 111.775C90.0201 102.746 90.0201 93.5403 90.0201 84.5115C90.0201 80.4397 92.8526 76.722 97.1014 76.0139C102.767 75.1287 106.484 78.8464 107.192 82.9182C107.369 83.4493 107.369 83.9804 107.369 84.5115C107.015 88.7604 107.015 93.3633 107.015 97.7891ZM101.173 88.5833C101.173 87.1671 101.173 85.7508 101.173 84.3345C101.173 82.7412 100.111 81.679 98.5177 81.502C96.7474 81.502 95.3311 82.3871 95.3311 83.9804C95.3311 86.99 95.3311 89.9996 95.3311 93.1862C95.3311 94.4255 96.3933 95.3107 97.6325 95.3107C97.9866 95.3107 98.1636 95.3107 98.5177 95.3107C100.111 95.3107 100.996 94.4255 100.996 92.8322C101.173 91.4159 101.173 89.9996 101.173 88.5833Z" fill="#716558"></path><path d="M54.4361 92.8322C54.4361 88.2292 54.4361 83.8034 54.4361 79.2005C54.4361 78.8464 54.4361 78.3153 54.6132 77.9612C54.9672 76.722 56.2065 75.8368 57.4457 75.8368C58.6849 75.8368 59.7472 76.722 60.1012 78.1383C60.1012 78.4923 60.2783 78.8464 60.2783 79.3775C60.2783 88.4063 60.2783 97.4351 60.2783 106.641C60.2783 107.88 60.9864 108.942 62.2256 109.296C62.9338 109.473 63.6419 109.473 64.3501 109.296C65.4123 108.942 65.9434 108.057 66.1204 106.995C66.1204 106.641 66.1204 106.464 66.1204 106.11C66.1204 98.1432 66.1204 90.1766 66.1204 82.2101C66.1204 81.5019 66.2974 80.7938 66.8285 80.2627C67.5367 79.3775 68.7759 78.8464 70.0152 79.2005C71.2544 79.5545 71.9626 80.6168 72.1396 81.856C72.1396 82.033 72.1396 82.033 72.1396 82.2101C72.1396 90.3537 72.1396 98.4973 72.1396 106.641C72.1396 110.713 69.307 114.253 65.2352 115.139C59.7472 116.201 55.8524 112.66 54.9672 108.588C54.7902 107.88 54.7902 107.172 54.7902 106.464C54.4361 101.684 54.4361 97.258 54.4361 92.8322Z" fill="#716558"></path><path d="M134.633 95.3107C134.633 89.8226 134.633 84.3345 134.633 78.8464C134.633 77.7842 134.987 76.899 135.872 76.3679C136.757 75.6598 137.82 75.6598 138.882 76.0139C139.944 76.545 140.475 77.4301 140.475 78.4923C140.475 78.6694 140.475 78.8464 140.475 79.0235C140.475 89.9996 140.475 100.799 140.475 111.775C140.475 112.837 140.298 113.545 139.413 114.253C138.528 114.962 137.465 115.139 136.403 114.784C135.341 114.43 134.81 113.545 134.633 112.306C134.633 112.129 134.633 111.952 134.633 111.598C134.633 106.287 134.633 100.799 134.633 95.3107Z" fill="#716558"></path><path d="M107.015 121.158C107.192 122.928 105.953 123.813 104.891 124.167C103.121 124.698 101.35 123.459 101.173 121.689C101.173 121.158 101.173 120.627 101.35 120.096C101.704 118.679 103.121 117.794 104.537 117.971C105.953 118.148 107.015 119.387 107.015 120.804C107.015 120.981 107.015 121.158 107.015 121.158Z" fill="#716558"></path><path d="M95.3312 121.158C95.5082 123.105 93.9149 124.168 92.6756 124.345C91.2594 124.345 89.8431 123.459 89.6661 122.043C89.489 120.981 89.489 119.919 90.3742 119.211C91.2594 118.325 92.3216 117.971 93.5608 118.325C94.623 118.68 95.5082 119.742 95.5082 120.981C95.3312 120.981 95.3312 121.158 95.3312 121.158Z" fill="#716558"></path><path d="M166.319 154.096H171.788V154.928H165.357V145.834H171.593V146.666H166.319V149.9H171.021V150.719H166.319V154.096ZM175.582 154.992C174.452 154.992 173.361 154.629 172.803 154.148L173.218 153.421C173.764 153.849 174.686 154.187 175.647 154.187C176.946 154.187 177.479 153.745 177.479 153.07C177.479 151.29 173.049 152.693 173.049 149.991C173.049 148.874 174.011 148.043 175.751 148.043C176.635 148.043 177.596 148.29 178.168 148.679L177.765 149.42C177.167 149.004 176.453 148.835 175.751 148.835C174.517 148.835 173.972 149.316 173.972 149.965C173.972 151.81 178.401 150.42 178.401 153.044C178.401 154.226 177.362 154.992 175.582 154.992ZM183.38 153.849L183.705 154.512C183.341 154.837 182.795 154.992 182.263 154.992C180.977 154.992 180.262 154.265 180.262 153.005V148.874H179.041V148.095H180.262V146.601H181.185V148.095H183.263V148.874H181.185V152.953C181.185 153.758 181.6 154.2 182.367 154.2C182.743 154.2 183.12 154.083 183.38 153.849ZM185.602 154.992C185.225 154.992 184.913 154.681 184.913 154.278C184.913 153.875 185.225 153.577 185.602 153.577C185.978 153.577 186.303 153.875 186.303 154.278C186.303 154.681 185.978 154.992 185.602 154.992ZM188.988 154.096H193.989V154.928H187.611V154.265L191.391 150.563C192.417 149.55 192.612 148.939 192.612 148.315C192.612 147.263 191.872 146.614 190.482 146.614C189.416 146.614 188.598 146.939 188.001 147.627L187.338 147.055C188.04 146.224 189.17 145.756 190.56 145.756C192.404 145.756 193.573 146.692 193.573 148.212C193.573 149.082 193.301 149.861 192.079 151.056L188.988 154.096ZM198.736 155.005C196.632 155.005 195.112 153.278 195.112 150.381C195.112 147.484 196.632 145.756 198.736 145.756C200.841 145.756 202.374 147.484 202.374 150.381C202.374 153.278 200.841 155.005 198.736 155.005ZM198.736 154.148C200.321 154.148 201.412 152.81 201.412 150.381C201.412 147.952 200.321 146.614 198.736 146.614C197.152 146.614 196.06 147.952 196.06 150.381C196.06 152.81 197.152 154.148 198.736 154.148ZM203.129 145.834H206.208V154.928H205.272V146.666H203.129V145.834ZM211.473 149.731C213.422 149.835 214.396 150.862 214.396 152.316C214.396 153.836 213.292 155.005 211.096 155.005C209.784 155.005 208.524 154.551 207.823 153.836L208.277 153.096C208.862 153.706 209.914 154.148 211.096 154.148C212.603 154.148 213.435 153.447 213.435 152.316C213.435 151.225 212.668 150.511 210.979 150.511H210.33V149.822L212.85 146.666H208.2V145.834H214.045V146.497L211.473 149.731Z" fill="#FFFAF4"></path><defs><clipPath id="clip0_239_5"><rect width="55.0072" height="46.5827" fill="white" transform="translate(26.9394 0.816929)"></rect></clipPath></defs></svg>