<svg xmlns="http://www.w3.org/2000/svg" width="355" height="254" viewBox="0 0 355 254" fill="none"><path d="M281.955 208.458C243.311 244.795 187.652 257.196 136.03 253.158C96.2316 249.698 55.5685 236.143 27.0178 207.593C2.21616 183.656 -11.0498 138.956 15.4821 111.847C38.5534 89.6408 70.5648 81.8542 99.1155 69.1651C132.857 58.4946 163.138 32.5394 200.052 35.1349C276.764 41.1911 347.708 147.607 281.955 208.458Z" fill="#716558"></path><path d="M267.824 160.296C267.824 167.794 267.824 175.581 267.824 183.079C267.824 183.944 267.536 184.809 267.247 185.675C266.094 187.693 264.075 188.559 261.768 187.982C259.749 187.405 258.307 185.675 258.307 183.656C258.307 179.042 258.307 174.716 258.307 170.102C258.307 169.525 258.307 169.236 258.307 168.66C258.019 167.218 257.154 166.352 255.423 166.064C254.27 165.776 253.116 165.776 251.963 166.064C249.944 166.352 248.79 167.794 248.79 169.813C248.79 171.543 248.79 172.985 248.79 174.716C248.79 179.618 248.79 184.809 248.79 189.712C248.79 196.345 244.176 202.69 236.39 203.843C235.524 203.843 234.659 203.843 233.794 203.843C231.487 203.555 229.757 201.825 229.757 199.517C229.468 197.21 231.199 195.192 233.217 194.615C233.794 194.615 234.371 194.326 234.948 194.326C237.543 194.326 239.274 192.596 239.562 190C239.562 189.712 239.562 189.424 239.562 188.847C239.562 172.12 239.562 155.394 239.562 138.667C239.562 132.611 243.888 125.978 251.098 124.824C260.326 123.382 266.382 129.438 267.536 136.36C267.536 137.225 267.536 137.802 267.536 138.667C267.824 145.588 267.824 152.798 267.824 160.296ZM249.079 145.012C249.079 147.319 249.079 149.626 249.079 151.933C249.079 154.24 251.098 155.97 253.116 155.97C253.693 155.97 254.27 155.97 254.847 155.97C257.154 155.97 258.596 154.528 258.596 152.221C258.596 147.607 258.596 142.704 258.596 138.09C258.596 135.206 256.577 133.476 253.693 133.476C250.809 133.476 249.079 135.495 249.079 138.09C249.079 140.397 249.079 142.704 249.079 145.012Z" fill="white"></path><path d="M137.472 154.817C137.472 164.045 137.472 173.274 137.472 182.214C137.472 182.791 137.472 183.079 137.472 183.656C137.183 186.251 135.453 187.982 132.857 187.982C130.262 187.982 128.243 186.251 127.955 183.656C127.955 183.079 127.955 182.502 127.955 181.925C127.955 164.334 127.955 147.03 127.955 129.438C127.955 125.112 124.782 121.075 119.591 120.787C111.805 120.498 104.595 118.191 97.6736 114.442C95.6548 113.577 94.7897 111.558 95.0781 109.828C95.3665 107.809 96.8084 106.367 98.8271 105.79C99.9807 105.502 101.134 105.79 102.288 106.367C106.325 108.386 110.651 110.116 114.977 110.981C120.456 112.135 126.224 112.135 131.704 110.405C133.434 109.828 135.164 108.963 136.895 108.386C143.528 106.079 150.161 104.637 157.37 104.637C163.427 104.637 169.195 105.213 174.962 106.944C175.539 107.232 176.116 107.232 176.981 107.521C179.288 108.386 180.442 110.981 179.577 113.288C178.711 115.884 176.116 117.038 173.809 116.172C170.636 115.019 167.464 114.442 164.003 114.154C157.947 113.577 151.891 113.865 145.835 115.307C142.374 116.172 140.067 118.768 138.625 122.229C138.048 123.671 137.76 125.112 137.76 126.843C137.472 136.071 137.472 145.588 137.472 154.817Z" fill="white"></path><path d="M79.7933 163.469C79.7933 172.121 79.7933 180.772 79.7933 189.424C79.7933 191.443 80.9469 193.173 82.9656 193.75C83.5424 194.038 84.1192 193.75 84.696 194.038C87.0031 194.038 88.7335 195.48 89.3102 197.499C90.1754 200.383 87.8683 203.267 84.9844 203.267C76.3327 203.844 70.2764 196.634 70.2764 189.424C70.2764 172.697 70.2764 155.971 70.2764 139.244C70.2764 138.667 70.2764 138.091 70.2764 137.802C70.2764 135.495 68.2577 133.765 65.9506 133.765C65.0854 133.765 63.9318 133.765 63.0667 133.765C61.6247 133.765 61.0479 134.63 61.0479 135.783C61.0479 136.072 61.0479 136.36 61.0479 136.649C61.0479 151.933 61.0479 167.218 61.0479 182.503C61.0479 183.079 61.0479 183.945 60.7595 184.521C60.1828 186.54 58.4524 187.694 56.4337 187.982C54.4149 187.982 52.3962 186.829 51.8194 184.81C51.531 184.233 51.531 183.368 51.531 182.791C51.531 166.064 51.531 149.338 51.531 132.611C51.531 129.439 52.6846 127.132 55.2801 125.401C56.4337 124.825 57.5872 124.536 58.7408 124.536C61.3363 124.536 63.9318 124.536 66.5274 124.536C72.872 124.536 78.6398 129.727 79.5049 136.072C79.5049 136.937 79.7933 137.802 79.7933 138.667C79.7933 146.742 79.7933 155.106 79.7933 163.469Z" fill="white"></path><path d="M185.056 156.835C185.056 148.184 185.056 139.82 185.056 131.169C185.056 128.285 187.075 125.112 190.247 124.247C190.824 123.959 191.689 123.959 192.266 123.959C194.573 123.959 196.88 123.959 199.187 123.959C204.955 123.67 210.434 127.708 212.453 133.476C213.03 134.918 213.318 136.648 213.318 138.09C213.318 140.686 213.318 142.993 213.318 145.588C213.318 150.779 211.011 154.817 206.397 157.412C204.955 158.277 204.667 159.431 205.243 160.873C206.109 163.468 207.262 166.064 208.127 168.659C209.858 172.697 211.3 177.023 212.742 181.06C213.607 183.656 212.742 185.963 210.434 187.116C208.127 188.27 205.243 187.116 204.09 184.521C203.225 182.791 202.648 181.06 202.071 179.042C200.052 173.85 198.034 168.659 196.015 163.18C195.726 162.315 195.438 162.026 194.861 162.315C194.285 162.315 193.996 162.603 193.996 163.18C193.996 163.468 193.996 163.757 193.996 164.045C193.996 170.101 193.996 175.869 193.996 181.925C193.996 184.233 192.843 185.963 190.824 186.54C187.94 187.405 184.768 185.386 184.768 182.214C184.768 179.33 184.768 176.446 184.768 173.562C185.056 168.371 185.056 162.603 185.056 156.835ZM194.284 140.974C194.284 142.416 194.284 144.146 194.284 145.588C194.284 149.337 198.034 151.356 201.494 149.914C202.936 149.337 203.801 147.895 203.801 146.453C203.801 143.569 203.801 140.974 203.801 138.09C203.801 135.783 201.783 133.764 199.476 133.764C198.61 133.764 197.457 133.764 196.592 133.764C195.15 133.764 194.284 134.629 194.284 136.071C194.284 137.513 194.284 139.244 194.284 140.974Z" fill="white"></path><path d="M175.251 160.008C175.251 167.507 175.251 175.293 175.251 182.791C175.251 183.368 175.251 184.233 174.962 184.81C174.386 186.829 172.078 188.271 170.06 187.982C167.753 187.694 166.022 185.964 166.022 183.656C166.022 183.368 166.022 183.08 166.022 182.791C166.022 178.465 166.022 174.14 166.022 169.525C166.022 166.93 164.58 165.488 161.985 165.488C161.12 165.488 160.254 165.488 159.678 165.488C157.947 165.776 156.794 166.93 156.794 168.66C156.794 169.237 156.794 169.525 156.794 170.102C156.794 174.428 156.794 178.754 156.794 183.08C156.794 184.233 156.505 185.387 155.929 186.252C154.775 187.982 152.756 188.559 150.738 187.982C148.719 187.406 147.565 185.675 147.565 183.656C147.565 183.368 147.565 183.08 147.565 182.791C147.565 168.083 147.565 153.087 147.565 138.379C147.565 131.746 152.18 125.69 159.101 124.536C168.329 123.094 174.386 129.151 175.539 135.784C175.828 136.649 175.828 137.514 175.828 138.379C175.251 145.3 175.251 152.799 175.251 160.008ZM165.734 145.012C165.734 142.705 165.734 140.398 165.734 138.091C165.734 135.495 164.004 133.765 161.408 133.476C158.524 133.476 156.217 134.918 156.217 137.514C156.217 142.417 156.217 147.319 156.217 152.51C156.217 154.529 157.947 155.971 159.966 155.971C160.543 155.971 160.831 155.971 161.408 155.971C164.004 155.971 165.445 154.529 165.445 151.933C165.734 149.626 165.734 147.319 165.734 145.012Z" fill="white"></path><path d="M89.5987 151.933C89.5987 144.434 89.5987 137.225 89.5987 129.726C89.5987 129.15 89.5987 128.285 89.8871 127.708C90.4638 125.689 92.4826 124.247 94.5013 124.247C96.52 124.247 98.2504 125.689 98.8272 127.996C98.8272 128.573 99.1156 129.15 99.1156 130.015C99.1156 144.723 99.1156 159.431 99.1156 174.427C99.1156 176.446 100.269 178.176 102.288 178.753C103.441 179.041 104.595 179.041 105.749 178.753C107.479 178.176 108.344 176.734 108.632 175.004C108.632 174.427 108.632 174.139 108.632 173.562C108.632 160.584 108.632 147.607 108.632 134.629C108.632 133.476 108.921 132.322 109.786 131.457C110.94 130.015 112.958 129.15 114.977 129.726C116.996 130.303 118.149 132.034 118.438 134.052C118.438 134.341 118.438 134.341 118.438 134.629C118.438 147.895 118.438 161.161 118.438 174.427C118.438 181.06 113.824 186.828 107.191 188.27C98.2504 190 91.9058 184.232 90.4638 177.599C90.1754 176.446 90.1754 175.292 90.1754 174.139C89.5987 166.352 89.5987 159.142 89.5987 151.933Z" fill="white"></path><path d="M220.24 155.971C220.24 147.031 220.24 138.09 220.24 129.15C220.24 127.42 220.816 125.978 222.258 125.113C223.7 123.959 225.431 123.959 227.161 124.536C228.891 125.401 229.757 126.843 229.757 128.574C229.757 128.862 229.757 129.15 229.757 129.439C229.757 147.319 229.757 164.911 229.757 182.791C229.757 184.521 229.468 185.675 228.026 186.829C226.584 187.982 224.854 188.27 223.124 187.694C221.393 187.117 220.528 185.675 220.24 183.656C220.24 183.368 220.24 183.079 220.24 182.503C220.24 173.851 220.24 164.911 220.24 155.971Z" fill="white"></path><path d="M175.251 198.076C175.539 200.96 173.52 202.402 171.79 202.978C168.906 203.844 166.022 201.825 165.734 198.941C165.734 198.076 165.734 197.211 166.022 196.345C166.599 194.038 168.906 192.596 171.213 192.885C173.52 193.173 175.251 195.192 175.251 197.499C175.251 197.787 175.251 198.076 175.251 198.076Z" fill="white"></path><path d="M156.217 198.075C156.505 201.247 153.91 202.978 151.891 203.266C149.584 203.266 147.277 201.824 146.988 199.517C146.7 197.787 146.7 196.056 148.142 194.903C149.584 193.461 151.314 192.884 153.333 193.461C155.063 194.038 156.505 195.768 156.505 197.787C156.217 197.787 156.217 198.075 156.217 198.075Z" fill="white"></path><path d="M249.079 145.012C249.079 142.705 249.079 140.398 249.079 138.091C249.079 135.207 250.809 133.477 253.693 133.477C256.577 133.477 258.596 135.207 258.596 138.091C258.596 142.705 258.596 147.608 258.596 152.222C258.596 154.529 256.865 155.971 254.846 155.971C254.27 155.971 253.693 155.971 253.116 155.971C251.097 156.259 249.079 154.529 249.079 151.934C249.079 149.626 249.079 147.319 249.079 145.012Z" fill="#716558"></path><path d="M194.284 140.974C194.284 139.244 194.284 137.802 194.284 136.071C194.284 134.629 195.15 133.764 196.592 133.764C197.457 133.764 198.61 133.764 199.476 133.764C201.783 133.764 203.801 135.783 203.801 138.09C203.801 140.974 203.801 143.569 203.801 146.453C203.801 148.184 202.936 149.337 201.494 149.914C198.034 151.356 194.284 149.337 194.284 145.588C194.573 143.858 194.284 142.416 194.284 140.974Z" fill="#716558"></path><path d="M165.734 145.012C165.734 147.319 165.734 149.627 165.734 151.934C165.734 154.529 164.292 155.971 161.696 155.971C161.12 155.971 160.831 155.971 160.254 155.971C158.236 155.971 156.505 154.529 156.505 152.51C156.505 147.608 156.505 142.705 156.505 137.514C156.505 134.919 158.812 133.188 161.696 133.477C164.292 133.477 166.022 135.495 166.022 138.091C165.734 140.398 165.734 142.705 165.734 145.012Z" fill="#716558"></path><g clip-path="url(#clip0_188_394)"><path d="M134.236 5.10422C134.149 4.36023 133.517 0.297669 133.188 0.0865821C132.235 -0.529377 124.886 2.34279 123.367 2.89646C115.788 5.67174 107.283 9.24984 100.933 14.2363C89.2714 23.3961 83.3618 38.7086 85.0278 53.329L81.4723 46.6503C75.1784 36.1721 58.0119 27.078 45.812 29.8741C43.1331 30.4866 44.5931 33.6667 45.124 35.6011C47.6631 44.8509 53.6496 54.5228 61.3195 60.3883C68.1442 65.6066 75.5731 67.6414 83.9765 69.0844L85.7368 76.5139L90.2773 75.1298C88.5868 62.949 92.2157 51.5884 98.6492 41.3801C103.665 33.421 109.295 26.7043 116.85 21.0015L119.962 19.2401C109.312 28.528 101.3 40.4215 96.2952 53.5816C95.7119 55.1111 92.4008 64.6896 93.0714 65.4371C107.716 61.4541 121.201 54.6266 128.403 40.7537C133.461 31.0091 135.511 15.932 134.236 5.0973V5.10422ZM60.9353 41.9164C68.4935 45.1069 76.593 50.8651 81.1265 57.7237C82.3454 59.5681 83.3793 61.0631 83.6342 63.3677C83.5679 61.7863 63.7504 42.1863 60.9318 41.9199L60.9353 41.9164Z" fill="#738752"></path></g><path d="M283.381 208.141C244.414 244.782 188.289 257.286 136.236 253.215C96.1057 249.726 55.103 236.058 26.3138 207.269C1.30508 183.133 -12.0717 138.059 14.6819 110.723C37.9458 88.3319 70.2246 80.4803 99.0137 67.6852C133.037 56.9256 163.571 30.7536 200.794 33.3708C278.146 39.4776 349.683 146.783 283.381 208.141Z" fill="#716558"></path><path d="M269.132 159.578C269.132 167.139 269.132 174.991 269.132 182.551C269.132 183.424 268.841 184.296 268.55 185.169C267.387 187.204 265.351 188.077 263.025 187.495C260.989 186.913 259.535 185.169 259.535 183.133C259.535 178.48 259.535 174.118 259.535 169.465C259.535 168.884 259.535 168.593 259.535 168.011C259.244 166.557 258.372 165.685 256.627 165.394C255.464 165.103 254.301 165.103 253.138 165.394C251.102 165.685 249.939 167.139 249.939 169.175C249.939 170.919 249.939 172.373 249.939 174.118C249.939 179.062 249.939 184.296 249.939 189.24C249.939 195.928 245.286 202.326 237.434 203.489C236.562 203.489 235.69 203.489 234.817 203.489C232.491 203.198 230.746 201.453 230.746 199.127C230.455 196.801 232.2 194.765 234.236 194.183C234.817 194.183 235.399 193.892 235.98 193.892C238.598 193.892 240.342 192.148 240.633 189.531C240.633 189.24 240.633 188.949 240.633 188.367C240.633 171.501 240.633 154.635 240.633 137.768C240.633 131.661 244.995 124.973 252.265 123.81C261.571 122.356 267.678 128.463 268.841 135.442C268.841 136.314 268.841 136.896 268.841 137.768C269.132 144.747 269.132 152.017 269.132 159.578ZM250.23 144.166C250.23 146.492 250.23 148.819 250.23 151.145C250.23 153.471 252.265 155.216 254.301 155.216C254.882 155.216 255.464 155.216 256.046 155.216C258.372 155.216 259.826 153.762 259.826 151.436C259.826 146.783 259.826 141.839 259.826 137.187C259.826 134.279 257.79 132.534 254.882 132.534C251.974 132.534 250.23 134.569 250.23 137.187C250.23 139.513 250.23 141.839 250.23 144.166Z" fill="#FFFAF4"></path><path d="M137.69 154.053C137.69 163.359 137.69 172.664 137.69 181.679C137.69 182.261 137.69 182.552 137.69 183.133C137.399 185.75 135.654 187.495 133.037 187.495C130.42 187.495 128.384 185.75 128.093 183.133C128.093 182.552 128.093 181.97 128.093 181.388C128.093 163.65 128.093 146.202 128.093 128.463C128.093 124.101 124.895 120.03 119.66 119.739C111.809 119.448 104.539 117.122 97.5594 113.341C95.5238 112.469 94.6514 110.433 94.9422 108.688C95.233 106.653 96.687 105.199 98.7226 104.617C99.8858 104.326 101.049 104.617 102.212 105.199C106.283 107.234 110.645 108.979 115.007 109.852C120.533 111.015 126.349 111.015 131.874 109.27C133.619 108.688 135.363 107.816 137.108 107.234C143.797 104.908 150.485 103.454 157.755 103.454C163.862 103.454 169.678 104.036 175.494 105.78C176.075 106.071 176.657 106.071 177.529 106.362C179.856 107.234 181.019 109.852 180.146 112.178C179.274 114.795 176.657 115.958 174.33 115.086C171.132 113.923 167.933 113.341 164.443 113.05C158.337 112.469 152.23 112.76 146.123 114.214C142.633 115.086 140.307 117.703 138.853 121.193C138.271 122.647 137.981 124.101 137.981 125.846C137.69 135.151 137.69 144.748 137.69 154.053Z" fill="#FFFAF4"></path><path d="M79.5301 162.777C79.5301 171.501 79.5301 180.225 79.5301 188.949C79.5301 190.985 80.6933 192.73 82.7289 193.311C83.3105 193.602 83.8921 193.311 84.4737 193.602C86.8001 193.602 88.5449 195.056 89.1265 197.092C89.9989 200 87.6725 202.908 84.7645 202.908C76.0405 203.489 69.9337 196.219 69.9337 188.949C69.9337 172.083 69.9337 155.217 69.9337 138.35C69.9337 137.769 69.9337 137.187 69.9337 136.896C69.9337 134.57 67.8981 132.825 65.5717 132.825C64.6993 132.825 63.5361 132.825 62.6637 132.825C61.2097 132.825 60.6281 133.698 60.6281 134.861C60.6281 135.152 60.6281 135.442 60.6281 135.733C60.6281 151.145 60.6281 166.558 60.6281 181.97C60.6281 182.552 60.6281 183.424 60.3373 184.006C59.7557 186.041 58.0109 187.205 55.9753 187.495C53.9397 187.495 51.9041 186.332 51.3225 184.297C51.0317 183.715 51.0317 182.843 51.0317 182.261C51.0317 165.395 51.0317 148.528 51.0317 131.662C51.0317 128.463 52.1949 126.137 54.8121 124.392C55.9753 123.81 57.1385 123.52 58.3017 123.52C60.9189 123.52 63.5361 123.52 66.1533 123.52C72.5509 123.52 78.3669 128.754 79.2393 135.152C79.2393 136.024 79.5301 136.896 79.5301 137.769C79.5301 145.911 79.5301 154.344 79.5301 162.777Z" fill="#FFFAF4"></path><path d="M185.672 156.089C185.672 147.365 185.672 138.931 185.672 130.207C185.672 127.299 187.707 124.101 190.906 123.228C191.487 122.937 192.36 122.937 192.941 122.937C195.268 122.937 197.594 122.937 199.921 122.937C205.737 122.647 211.262 126.718 213.297 132.534C213.879 133.988 214.17 135.733 214.17 137.187C214.17 139.804 214.17 142.13 214.17 144.747C214.17 149.982 211.843 154.053 207.191 156.67C205.737 157.543 205.446 158.706 206.027 160.16C206.9 162.777 208.063 165.394 208.935 168.011C210.68 172.083 212.134 176.445 213.588 180.516C214.461 183.133 213.588 185.459 211.262 186.623C208.935 187.786 206.027 186.623 204.864 184.005C203.992 182.261 203.41 180.516 202.829 178.48C200.793 173.246 198.757 168.011 196.722 162.486C196.431 161.614 196.14 161.323 195.559 161.614C194.977 161.614 194.686 161.905 194.686 162.486C194.686 162.777 194.686 163.068 194.686 163.359C194.686 169.465 194.686 175.281 194.686 181.388C194.686 183.715 193.523 185.459 191.487 186.041C188.579 186.913 185.381 184.878 185.381 181.679C185.381 178.771 185.381 175.863 185.381 172.955C185.672 167.721 185.672 161.905 185.672 156.089ZM194.977 140.095C194.977 141.549 194.977 143.293 194.977 144.747C194.977 148.528 198.757 150.563 202.247 149.109C203.701 148.528 204.573 147.074 204.573 145.62C204.573 142.712 204.573 140.095 204.573 137.187C204.573 134.86 202.538 132.825 200.211 132.825C199.339 132.825 198.176 132.825 197.303 132.825C195.849 132.825 194.977 133.697 194.977 135.151C194.977 136.605 194.977 138.35 194.977 140.095Z" fill="#FFFAF4"></path><path d="M175.785 159.287C175.785 166.848 175.785 174.7 175.785 182.261C175.785 182.842 175.785 183.715 175.494 184.296C174.912 186.332 172.586 187.786 170.55 187.495C168.224 187.204 166.479 185.459 166.479 183.133C166.479 182.842 166.479 182.551 166.479 182.261C166.479 177.899 166.479 173.537 166.479 168.884C166.479 166.267 165.025 164.813 162.408 164.813C161.536 164.813 160.663 164.813 160.082 164.813C158.337 165.103 157.174 166.267 157.174 168.011C157.174 168.593 157.174 168.884 157.174 169.465C157.174 173.827 157.174 178.189 157.174 182.551C157.174 183.715 156.883 184.878 156.301 185.75C155.138 187.495 153.102 188.077 151.067 187.495C149.031 186.913 147.868 185.169 147.868 183.133C147.868 182.842 147.868 182.551 147.868 182.261C147.868 167.43 147.868 152.308 147.868 137.477C147.868 130.789 152.521 124.682 159.5 123.519C168.806 122.065 174.912 128.172 176.076 134.86C176.366 135.733 176.366 136.605 176.366 137.477C175.785 144.457 175.785 152.017 175.785 159.287ZM166.188 144.166C166.188 141.839 166.188 139.513 166.188 137.187C166.188 134.569 164.444 132.825 161.826 132.534C158.918 132.534 156.592 133.988 156.592 136.605C156.592 141.549 156.592 146.492 156.592 151.727C156.592 153.762 158.337 155.216 160.372 155.216C160.954 155.216 161.245 155.216 161.826 155.216C164.444 155.216 165.898 153.762 165.898 151.145C166.188 148.819 166.188 146.492 166.188 144.166Z" fill="#FFFAF4"></path><path d="M89.4174 151.145C89.4174 143.584 89.4174 136.314 89.4174 128.753C89.4174 128.172 89.4174 127.299 89.7082 126.718C90.2898 124.682 92.3254 123.228 94.361 123.228C96.3966 123.228 98.1414 124.682 98.723 127.008C98.723 127.59 99.0138 128.172 99.0138 129.044C99.0138 143.875 99.0138 158.706 99.0138 173.827C99.0138 175.863 100.177 177.608 102.213 178.189C103.376 178.48 104.539 178.48 105.702 178.189C107.447 177.608 108.319 176.154 108.61 174.409C108.61 173.827 108.61 173.536 108.61 172.955C108.61 159.869 108.61 146.783 108.61 133.697C108.61 132.534 108.901 131.37 109.773 130.498C110.937 129.044 112.972 128.172 115.008 128.753C117.043 129.335 118.207 131.08 118.497 133.115C118.497 133.406 118.497 133.406 118.497 133.697C118.497 147.074 118.497 160.45 118.497 173.827C118.497 180.516 113.845 186.332 107.156 187.786C98.1414 189.53 91.7438 183.714 90.2898 177.026C89.999 175.863 89.999 174.7 89.999 173.536C89.4174 165.685 89.4174 158.415 89.4174 151.145Z" fill="#FFFAF4"></path><path d="M221.15 155.216C221.15 146.202 221.15 137.187 221.15 128.172C221.15 126.427 221.731 124.973 223.185 124.101C224.639 122.938 226.384 122.938 228.129 123.519C229.874 124.392 230.746 125.846 230.746 127.59C230.746 127.881 230.746 128.172 230.746 128.463C230.746 146.492 230.746 164.231 230.746 182.261C230.746 184.006 230.455 185.169 229.001 186.332C227.547 187.495 225.802 187.786 224.058 187.204C222.313 186.623 221.44 185.169 221.15 183.133C221.15 182.842 221.15 182.552 221.15 181.97C221.15 173.246 221.15 164.231 221.15 155.216Z" fill="#FFFAF4"></path><path d="M175.785 197.673C176.075 200.581 174.04 202.035 172.295 202.617C169.387 203.489 166.479 201.454 166.188 198.546C166.188 197.673 166.188 196.801 166.479 195.928C167.061 193.602 169.387 192.148 171.713 192.439C174.04 192.73 175.785 194.765 175.785 197.092C175.785 197.382 175.785 197.673 175.785 197.673Z" fill="#FFFAF4"></path><path d="M156.592 197.674C156.883 200.872 154.266 202.617 152.23 202.908C149.904 202.908 147.577 201.454 147.287 199.128C146.996 197.383 146.996 195.638 148.45 194.475C149.904 193.021 151.649 192.439 153.684 193.021C155.429 193.602 156.883 195.347 156.883 197.383C156.592 197.383 156.592 197.674 156.592 197.674Z" fill="#FFFAF4"></path><path d="M273.197 251.995H282.18V253.36H271.618V238.424H281.86V239.789H273.197V245.103H280.921V246.447H273.197V251.995ZM288.414 253.467C286.558 253.467 284.765 252.87 283.848 252.08L284.53 250.885C285.427 251.589 286.942 252.144 288.521 252.144C290.654 252.144 291.529 251.419 291.529 250.309C291.529 247.386 284.253 249.69 284.253 245.252C284.253 243.417 285.832 242.051 288.691 242.051C290.142 242.051 291.721 242.457 292.66 243.097L291.999 244.313C291.017 243.63 289.844 243.353 288.691 243.353C286.664 243.353 285.768 244.142 285.768 245.209C285.768 248.239 293.044 245.956 293.044 250.266C293.044 252.208 291.337 253.467 288.414 253.467ZM301.222 251.589L301.756 252.678C301.158 253.211 300.262 253.467 299.387 253.467C297.275 253.467 296.101 252.272 296.101 250.202V243.417H294.095V242.137H296.101V239.683H297.616V242.137H301.03V243.417H297.616V250.117C297.616 251.44 298.299 252.165 299.558 252.165C300.177 252.165 300.795 251.973 301.222 251.589ZM304.871 253.467C304.252 253.467 303.74 252.955 303.74 252.293C303.74 251.632 304.252 251.141 304.871 251.141C305.49 251.141 306.024 251.632 306.024 252.293C306.024 252.955 305.49 253.467 304.871 253.467ZM310.434 251.995H318.649V253.36H308.172V252.272L314.381 246.191C316.067 244.526 316.387 243.524 316.387 242.499C316.387 240.771 315.171 239.704 312.887 239.704C311.138 239.704 309.793 240.238 308.812 241.368L307.724 240.43C308.876 239.064 310.732 238.296 313.016 238.296C316.045 238.296 317.966 239.832 317.966 242.329C317.966 243.758 317.518 245.039 315.512 247.002L310.434 251.995ZM326.447 253.488C322.99 253.488 320.493 250.65 320.493 245.892C320.493 241.134 322.99 238.296 326.447 238.296C329.903 238.296 332.421 241.134 332.421 245.892C332.421 250.65 329.903 253.488 326.447 253.488ZM326.447 252.08C329.05 252.08 330.842 249.882 330.842 245.892C330.842 241.902 329.05 239.704 326.447 239.704C323.843 239.704 322.051 241.902 322.051 245.892C322.051 249.882 323.843 252.08 326.447 252.08ZM333.662 238.424H338.719V253.36H337.183V239.789H333.662V238.424ZM347.368 244.825C350.569 244.996 352.169 246.682 352.169 249.071C352.169 251.568 350.355 253.488 346.749 253.488C344.594 253.488 342.524 252.742 341.372 251.568L342.119 250.352C343.079 251.355 344.808 252.08 346.749 252.08C349.225 252.08 350.59 250.928 350.59 249.071C350.59 247.279 349.331 246.105 346.557 246.105H345.49V244.975L349.63 239.789H341.991V238.424H351.593V239.512L347.368 244.825Z" fill="#716558"></path><defs><clipPath id="clip0_188_394"><rect width="90.3556" height="76.5173" fill="white" transform="translate(44.251)"></rect></clipPath></defs></svg>